<svg width="108" height="15" fill="none" xmlns="http://www.w3.org/2000/svg"><path d="M2.896 14H.234V.696h2.662v5.325h5.316V.696h2.663V14H8.212V8.684H2.896V14zm23.49-6.596c0 .63-.083 1.24-.25 1.827a6.983 6.983 0 01-.686 1.643 6.865 6.865 0 01-1.076 1.391 7.14 7.14 0 01-1.392 1.086 6.77 6.77 0 01-1.642.686 6.652 6.652 0 01-1.828.25 6.65 6.65 0 01-1.827-.25 6.983 6.983 0 01-1.642-.686 7.143 7.143 0 01-1.392-1.086 7.14 7.14 0 01-1.086-1.392 7.285 7.285 0 01-.695-1.642 6.893 6.893 0 01-.242-1.827c0-.631.08-1.24.242-1.828a7.054 7.054 0 01.695-1.642 7.144 7.144 0 011.086-1.392c.42-.42.884-.779 1.392-1.076A6.984 6.984 0 0117.684.78a6.652 6.652 0 011.827-.25c.631 0 1.24.083 1.828.25a6.772 6.772 0 013.034 1.762 6.772 6.772 0 011.763 3.034c.166.588.25 1.197.25 1.828zm-2.643 0a4.09 4.09 0 00-.334-1.642 4.167 4.167 0 00-.91-1.345 4.168 4.168 0 00-1.345-.91 4.082 4.082 0 00-1.642-.334c-.587 0-1.138.112-1.651.334a4.306 4.306 0 00-1.345.91 4.169 4.169 0 00-.91 1.345 4.083 4.083 0 00-.333 1.642c0 .581.11 1.129.333 1.642a4.304 4.304 0 002.254 2.245 4.104 4.104 0 001.652.334c.582 0 1.129-.111 1.642-.334.52-.223.968-.526 1.346-.91.383-.383.686-.828.909-1.335a4.09 4.09 0 00.334-1.642zm14.89 1.28c0 .736-.14 1.429-.418 2.078a5.39 5.39 0 01-1.14 1.689 5.441 5.441 0 01-1.699 1.131 5.154 5.154 0 01-2.068.418 5.22 5.22 0 01-2.078-.418 5.472 5.472 0 01-1.689-1.131 5.472 5.472 0 01-1.132-1.689 5.22 5.22 0 01-.417-2.078V.696h2.653v7.988c0 .365.068.708.204 1.03a2.752 2.752 0 001.42 1.419 2.68 2.68 0 001.039.204 2.622 2.622 0 001.883-.779 2.63 2.63 0 00.566-.844c.142-.322.213-.665.213-1.03V.696h2.663v7.988zm1.53-3.998c0-.55.106-1.067.316-1.55a4.06 4.06 0 012.124-2.124c.483-.21 1-.316 1.55-.316h6.104V3.36h-6.104a1.32 1.32 0 00-1.225.807 1.389 1.389 0 000 1.048c.068.161.161.303.279.427.123.118.265.21.426.278.161.068.334.102.52.102h2.662c.55 0 1.067.106 1.55.316.488.204.912.489 1.27.853.366.36.65.783.854 1.271.21.483.316 1 .316 1.55s-.105 1.067-.316 1.55a3.963 3.963 0 01-2.124 2.124c-.483.21-1 .315-1.55.315h-5.91v-2.663h5.91a1.32 1.32 0 001.225-.807c.068-.16.102-.334.102-.52a1.32 1.32 0 00-.102-.519 1.23 1.23 0 00-.288-.417 1.23 1.23 0 00-.417-.288 1.32 1.32 0 00-.52-.102h-2.662c-.55 0-1.067-.105-1.55-.315a4.175 4.175 0 01-1.27-.854 4.175 4.175 0 01-.854-1.27 3.9 3.9 0 01-.315-1.56z" fill="#fff"/><path d="M61.678 14h-9.12V.696h9.12V3.36H55.22v2.66h4.37v2.663h-4.37v2.653h6.457V14zm.937-9.314c0-.55.105-1.067.315-1.55a4.06 4.06 0 012.125-2.124c.482-.21.998-.316 1.549-.316h6.105V3.36h-6.105a1.32 1.32 0 00-1.225.807 1.389 1.389 0 000 1.048c.068.161.161.303.279.427.123.118.266.21.427.278.16.068.334.102.519.102h2.663c.55 0 1.067.106 1.549.316.489.204.912.489 1.27.853.366.36.65.783.854 1.271.21.483.316 1 .316 1.55s-.105 1.067-.316 1.55a3.965 3.965 0 01-2.124 2.124c-.483.21-.999.315-1.55.315h-5.91v-2.663h5.91a1.32 1.32 0 001.225-.807 1.32 1.32 0 00.102-.52 1.32 1.32 0 00-.102-.519 1.23 1.23 0 00-.287-.417 1.23 1.23 0 00-.418-.288 1.32 1.32 0 00-.52-.102h-2.662c-.55 0-1.067-.105-1.55-.315a4.175 4.175 0 01-1.27-.854 4.175 4.175 0 01-.854-1.27 3.9 3.9 0 01-.315-1.56zm20.224 3.998V6.021c0-.364-.07-.708-.213-1.03a2.606 2.606 0 00-.566-.853 2.607 2.607 0 00-.853-.566 2.517 2.517 0 00-1.03-.213c-.365 0-.712.071-1.04.213a2.63 2.63 0 00-.844.566 2.728 2.728 0 00-.575.854 2.615 2.615 0 00-.204 1.03v2.662h5.325zM85.502 14h-2.663v-2.663h-5.325V14h-2.653V6.021c0-.736.139-1.425.417-2.068a5.44 5.44 0 011.132-1.698 5.39 5.39 0 011.69-1.141 5.22 5.22 0 012.078-.418c.736 0 1.425.14 2.069.418a5.357 5.357 0 011.697 1.14 5.361 5.361 0 011.142 1.699c.278.643.417 1.332.417 2.068V14zm11.624 0h-9.314V.696h2.663v10.641h6.651V14zm10.512 0h-9.12V.696h9.12V3.36h-6.457v2.66h4.369v2.663h-4.369v2.653h6.457V14z" fill="#FFC839"/></svg>