<svg width="92" height="92" fill="none" xmlns="http://www.w3.org/2000/svg"><g clip-path="url(#clip0)"><path d="M4.99 64.014l3.055 6.274a44.25 44.25 0 0013.236 14.12H70.72a44.246 44.246 0 0013.535-14.633l2.906-6.159a43.915 43.915 0 002.863-15.64c0-24.314-19.71-44.024-44.024-44.024-24.313 0-44.023 19.71-44.023 44.024 0 5.66 1.069 11.069 3.014 16.038z" fill="#FFC839"/><path d="M67.432 62.484a6.456 6.456 0 003.96 1.354c1.436 0 2.83-.476 3.96-1.354a12.372 12.372 0 002.501-2.635 18.26 18.26 0 00-.68-.185 1.03 1.03 0 01-.588-.396c-.627-.886-.801-2.254-.835-3.246a9.32 9.32 0 01-1.344 1.284 4.923 4.923 0 01-6.028 0 9.32 9.32 0 01-1.343-1.284c-.035 1.014-.216 2.422-.878 3.304a.892.892 0 01-.496.325 17.41 17.41 0 00-.73.199 12.37 12.37 0 002.501 2.634z" fill="#FCAD6D"/><path d="M68.378 57.306a9.32 9.32 0 01-1.343-1.284c-.035 1.014-.216 2.422-.878 3.304a.892.892 0 01-.496.325 17.41 17.41 0 00-.73.199 12.374 12.374 0 002.501 2.635 6.432 6.432 0 001.63.92c1.56-1.308 2.188-3.288 2.407-5.072a4.907 4.907 0 01-3.09-1.027z" fill="#FCAD6D"/><path d="M87.162 63.617c-.907-.72-2.081-1.221-3.602-1.346-.562-.046-.862-.264-1.524-.637a19.5 19.5 0 00-4.368-1.836 11.937 11.937 0 01-2.451 2.594 6.235 6.235 0 01-3.823 1.307 6.235 6.235 0 01-3.824-1.307 11.945 11.945 0 01-2.452-2.595 19.664 19.664 0 00-4.367 1.837c-.663.373-.962.591-1.524.637-4.781.391-6.147 4.489-6.5 7.504h31.53a43.853 43.853 0 002.905-6.159z" fill="#FF4155"/><path d="M67.508 64.33a5.723 5.723 0 001.68-1.033 6.204 6.204 0 01-1.62-.905 11.945 11.945 0 01-2.45-2.595 19.663 19.663 0 00-4.368 1.837c-.663.373-.962.591-1.524.637-4.781.391-6.147 4.489-6.5 7.504h6.763c.152-5.49 2.843-3.357 8.02-5.444z" fill="#E80054"/><path d="M16.721 62.949a6.338 6.338 0 003.887 1.329c1.41 0 2.778-.468 3.887-1.33a12.136 12.136 0 002.475-2.613 18.69 18.69 0 00-.582-.157 1.03 1.03 0 01-.587-.397c-.627-.885-.801-2.253-.835-3.246a9.32 9.32 0 01-1.344 1.284 4.923 4.923 0 01-6.028 0 9.31 9.31 0 01-1.343-1.284c-.035 1.015-.216 2.422-.878 3.305a.89.89 0 01-.496.325c-.212.053-.423.11-.63.169a12.15 12.15 0 002.474 2.615z" fill="#FCAD6D"/><path d="M20.508 58.845a4.903 4.903 0 01-2.914-1.027 9.31 9.31 0 01-1.343-1.284c-.035 1.015-.216 2.422-.878 3.305a.892.892 0 01-.496.325c-.212.053-.423.11-.63.169.769 1.1 1.65 1.974 2.474 2.615.256.199.526.375.807.531 1.97-1.506 2.733-3.219 2.98-4.634z" fill="#FD995B"/><path d="M32.774 62.785c-.562-.046-.861-.264-1.524-.638-1.38-.778-2.81-1.4-4.367-1.836a11.944 11.944 0 01-2.452 2.595 6.235 6.235 0 01-3.823 1.307 6.236 6.236 0 01-3.824-1.307 11.939 11.939 0 01-2.451-2.596 19.673 19.673 0 00-4.368 1.837c-.662.374-.961.592-1.524.638-1.438.118-2.565.572-3.45 1.23a43.838 43.838 0 003.054 6.274h31.228c-.352-3.016-1.718-7.113-6.499-7.504z" fill="#73C3F9"/><path d="M9.66 70.289c.108-4.658 1.1-2.834 6.577-5.957.505-.288.952-.59 1.35-.898a6.2 6.2 0 01-.803-.528 11.938 11.938 0 01-2.451-2.596 19.692 19.692 0 00-4.368 1.837c-.662.374-.961.592-1.524.638-1.438.118-2.565.572-3.45 1.23a43.845 43.845 0 003.054 6.274H9.66z" fill="#4FABF7"/><path d="M39.516 83.24a10.573 10.573 0 006.485 2.216c2.35 0 4.633-.78 6.483-2.216a20.256 20.256 0 004.081-4.296 30.217 30.217 0 00-1.172-.321 1.674 1.674 0 01-.953-.644c-1.02-1.439-1.303-3.663-1.358-5.276a15.136 15.136 0 01-2.184 2.087 8.002 8.002 0 01-9.796 0 15.136 15.136 0 01-2.184-2.087c-.056 1.649-.35 3.936-1.426 5.37a1.45 1.45 0 01-.806.53c-.422.104-.838.22-1.25.342a20.269 20.269 0 004.08 4.295z" fill="#FCAD6D"/><path d="M45.654 76.457a7.97 7.97 0 01-4.552-1.667 15.136 15.136 0 01-2.184-2.087c-.056 1.649-.35 3.936-1.426 5.37a1.449 1.449 0 01-.806.53c-.422.104-.838.22-1.25.342a20.261 20.261 0 004.08 4.295c.679.526 1.416.964 2.193 1.308 2.328-2.317 3.435-5.39 3.945-8.091z" fill="#FD995B"/><path d="M63.295 81.824c-2.243-1.266-4.566-2.275-7.097-2.984a19.409 19.409 0 01-3.984 4.216 10.132 10.132 0 01-6.213 2.125 10.13 10.13 0 01-6.214-2.125 19.409 19.409 0 01-3.984-4.217c-2.521.708-4.86 1.723-7.098 2.985-1.077.607-1.563.962-2.477 1.036-1.993.163-3.618.724-4.947 1.549a43.818 43.818 0 0024.72 7.59c9.163 0 17.672-2.8 24.719-7.59-1.329-.825-2.954-1.386-4.948-1.549-.913-.075-1.4-.429-2.477-1.036z" fill="#3C58A0"/><path d="M39.787 83.056a19.409 19.409 0 01-3.984-4.217c-2.521.708-4.86 1.723-7.098 2.985-1.077.607-1.563.962-2.477 1.036-1.993.163-3.618.724-4.947 1.549a43.874 43.874 0 0011.024 5.417c1.092-.58 3.138-1.263 6.97-3.43a11.382 11.382 0 002.65-2.068 10.093 10.093 0 01-2.138-1.272z" fill="#2A428C"/><path d="M44.879 10a4.221 4.221 0 014.209-4.21h20.04V4.21A4.222 4.222 0 0064.92 0H43.157a4.222 4.222 0 00-4.209 4.21v17.278a4.222 4.222 0 004.21 4.21h1.72V10z" fill="#4FABF7"/><path d="M55.168 0h-12.01a4.222 4.222 0 00-4.21 4.21v17.278a4.222 4.222 0 004.21 4.21h1.72V10a4.222 4.222 0 014.21-4.21h5.99c.054-.173.09-.268.09-.268-2.986-2.986 0-5.522 0-5.522z" fill="#1886EA"/><path d="M70.58 5.521H48.82a4.222 4.222 0 00-4.21 4.21V27.01a4.222 4.222 0 004.21 4.209c.591 0 .92.68.557 1.147a9.975 9.975 0 01-1.297 1.387c-.895.788-.392 2.405.743 2.401 2.885-.009 5.59-1.473 7.43-3.858a2.722 2.722 0 012.15-1.077H70.58a4.221 4.221 0 004.21-4.21V9.731a4.22 4.22 0 00-4.21-4.21z" fill="#E9EFFF"/><path d="M48.819 5.522a4.222 4.222 0 00-4.21 4.209V27.01a4.222 4.222 0 004.21 4.209c.591 0 .92.68.557 1.148a9.975 9.975 0 01-1.297 1.386c-.895.789-.392 2.405.743 2.402 2.885-.01 5.59-1.474 7.43-3.86a2.722 2.722 0 012.15-1.076h5.438c-6.54-3.822-3.667-10.555-3.667-10.555l-.855-3.856c-6.9-4.046-4.15-11.287-4.15-11.287h-6.35z" fill="#BEC8F7"/><path d="M52.875 20.782a2.022 2.022 0 10-.93-3.937 2.022 2.022 0 00.93 3.937zm6.899-.002a2.022 2.022 0 10-.93-3.937 2.022 2.022 0 00.93 3.937z" fill="#1886EA"/><path d="M67.64 20.267a2.023 2.023 0 10-2.86-2.86 2.023 2.023 0 002.86 2.86z" fill="#4FABF7"/><path d="M43.632 39.197c-7.112.97-7.788 5.002-7.791 6.481 0 .31-.173.598-.452.734-3.7 1.8-1.705 10.473-1.705 10.473.372.025.93.344 1.22.484.07-.442.186-.877.35-1.298.125-.32.28-.644.476-.95.338-.53.492-1.157.446-1.783-.133-1.81-.237-5.206 2.151-6.281 2.024-.91 4.506-.383 6.089.143a5.027 5.027 0 003.17 0c1.582-.526 4.064-1.053 6.088-.143 2.382 1.072 2.284 4.452 2.152 6.266-.045.63.104 1.263.445 1.798a5.5 5.5 0 01.488.981c.157.411.27.836.339 1.267.366-.177 1.056-.538 1.503-.475.055-1.897.23-3.941.23-3.941C60.94 42.63 51.29 38.154 43.632 39.197z" fill="#2A428C"/><path d="M43.632 39.198c-7.112.969-7.788 5.001-7.791 6.48a.813.813 0 01-.452.734c-3.7 1.8-1.705 10.473-1.705 10.473.372.025.93.344 1.22.485.07-.442.186-.878.35-1.298.125-.32.28-.645.476-.95a2.92 2.92 0 00.446-1.783c-.133-1.81-.237-5.207 2.151-6.282 2.024-.91 4.506-.383 6.089.143a5.02 5.02 0 001.332.247 4.607 4.607 0 00-.226-.352c-3.05-4.289 1.19-7.414 2.009-7.96a16.739 16.739 0 00-3.899.063z" fill="#1C2E7A"/><path d="M59.232 57.14c-.554-.507-1.657-.25-2.134.06.104.652.11 1.317.02 1.975l-.563 4.1c0 .33-.01.655-.03.974 1.373.414 2.055-.818 2.17-1.664.05-.364.13-.723.242-1.073.366-1.141 1.683-3.1.295-4.372z" fill="#FCAD6D"/><path d="M32.77 57.14c.553-.507 1.656-.25 2.133.06a6.698 6.698 0 00-.02 1.975l.563 4.1c0 .33.01.655.03.974-1.373.414-2.055-.818-2.17-1.664a6.296 6.296 0 00-.242-1.073c-.365-1.141-1.683-3.1-.295-4.372z" fill="#FD995B"/><path d="M56.927 55.934a5.458 5.458 0 00-.487-.981 2.947 2.947 0 01-.445-1.799c.131-1.814.06-5.362-2.321-6.434-2.023-.91-4.505-.383-6.088.143a5.03 5.03 0 01-3.17 0c-1.583-.526-4.065-1.053-6.088-.143-2.389 1.075-2.453 4.64-2.32 6.45a2.917 2.917 0 01-.446 1.783c-.195.306-.351.63-.476.95a6.555 6.555 0 00-.371 3.271l.563 4.101c0 5.897 3.148 9.904 5.825 11.983A7.988 7.988 0 0046 76.933c1.776 0 3.5-.59 4.898-1.675 2.677-2.079 5.825-6.087 5.825-11.983l.563-4.1a6.567 6.567 0 00-.36-3.241z" fill="#F9BA8F"/><path d="M48.922 75.258c-2.677-2.079-5.825-6.087-5.825-11.983l-.563-4.101a6.555 6.555 0 01.371-3.271c.125-.32.28-.644.476-.95a2.92 2.92 0 00.446-1.783c-.12-1.636-.079-4.708 1.696-6.076a5.014 5.014 0 01-1.107-.23c-1.583-.527-4.065-1.054-6.088-.144-2.389 1.075-2.453 4.64-2.32 6.45a2.917 2.917 0 01-.446 1.783c-.195.306-.351.63-.476.95a6.555 6.555 0 00-.371 3.271l.563 4.101c0 5.897 3.148 9.904 5.825 11.983a7.998 7.998 0 008.808.653 7.919 7.919 0 01-.989-.653z" fill="#FCAD6D"/><path d="M69.935 35.404c-4.376.597-4.792 3.078-4.794 3.988a.501.501 0 01-.278.452c-2.276 1.107-1.05 6.444-1.05 6.444.23.016.572.212.75.299.044-.273.116-.54.217-.8.076-.196.172-.395.292-.584.209-.327.303-.712.275-1.097-.082-1.114-.146-3.204 1.324-3.865 1.245-.56 2.772-.236 3.746.088a3.09 3.09 0 001.95 0c.975-.324 2.502-.648 3.747-.088 1.466.66 1.406 2.74 1.325 3.855-.028.389.064.778.274 1.107.124.194.222.4.3.604.097.253.166.514.208.78.225-.11.65-.332.925-.293.034-1.167.142-2.425.142-2.425 1.297-6.352-4.64-9.107-9.353-8.465z" fill="#2A428C"/><path d="M69.935 35.405c-4.376.596-4.792 3.078-4.794 3.988a.5.5 0 01-.278.451c-2.276 1.108-1.05 6.445-1.05 6.445.23.015.572.212.75.298.044-.272.116-.54.217-.798.076-.198.172-.397.292-.585.209-.327.303-.712.275-1.097-.082-1.114-.146-3.204 1.324-3.866 1.245-.56 2.772-.236 3.746.089.267.088.543.137.82.151a2.888 2.888 0 00-.139-.216c-1.877-2.64.733-4.562 1.237-4.898a10.28 10.28 0 00-2.4.038z" fill="#1C2E7A"/><path d="M79.536 46.446c-.341-.313-1.02-.154-1.314.037.065.4.068.81.013 1.215l-.347 2.523c0 .203-.006.403-.018.599.845.255 1.265-.504 1.335-1.024.03-.224.08-.445.15-.66.224-.702 1.035-1.908.18-2.69z" fill="#FCAD6D"/><path d="M63.25 46.446c.342-.313 1.02-.154 1.314.037-.064.4-.068.81-.012 1.215l.346 2.523c0 .203.007.403.018.599-.844.255-1.264-.504-1.335-1.024a3.87 3.87 0 00-.149-.66c-.225-.702-1.035-1.908-.181-2.69z" fill="#FD995B"/><path d="M78.117 45.704a3.37 3.37 0 00-.3-.604 1.813 1.813 0 01-.274-1.107c.081-1.116.038-3.3-1.428-3.96-1.245-.56-2.772-.235-3.746.089a3.1 3.1 0 01-1.951 0c-.974-.324-2.501-.648-3.746-.088-1.47.661-1.51 2.855-1.428 3.969.028.385-.066.77-.275 1.097-.12.188-.216.387-.292.585a4.033 4.033 0 00-.229 2.013l.347 2.523c0 3.629 1.937 6.095 3.584 7.374a4.916 4.916 0 003.014 1.03 4.915 4.915 0 003.014-1.03c1.648-1.28 3.584-3.745 3.584-7.374l.347-2.523a4.03 4.03 0 00-.22-1.994z" fill="#F9BA8F"/><path d="M73.19 57.595c-1.647-1.28-3.584-3.745-3.584-7.373l-.346-2.524a4.035 4.035 0 01.228-2.013c.077-.197.173-.397.293-.585a1.8 1.8 0 00.275-1.097c-.074-1.007-.049-2.897 1.043-3.739a3.078 3.078 0 01-.681-.142c-.974-.324-2.501-.648-3.746-.088-1.47.661-1.51 2.855-1.428 3.969.028.385-.066.77-.275 1.097-.12.188-.216.387-.292.585a4.033 4.033 0 00-.229 2.013l.347 2.523c0 3.629 1.937 6.095 3.584 7.374a4.916 4.916 0 005.42.402 4.898 4.898 0 01-.608-.402z" fill="#FCAD6D"/><path d="M19.15 35.917c-4.376.596-4.792 3.078-4.794 3.988a.501.501 0 01-.278.451c-2.277 1.108-1.05 6.445-1.05 6.445.23.015.572.212.75.298.044-.272.116-.54.216-.798.077-.198.173-.397.293-.585a1.8 1.8 0 00.275-1.097c-.082-1.114-.146-3.204 1.324-3.865 1.245-.56 2.772-.236 3.746.088a3.09 3.09 0 001.95 0c.975-.324 2.502-.649 3.747-.088 1.466.659 1.406 2.739 1.325 3.855-.029.388.064.778.274 1.107.123.194.222.4.3.603.096.253.165.515.208.78.225-.11.65-.331.925-.292.034-1.167.142-2.426.142-2.426 1.297-6.352-4.64-9.106-9.353-8.464z" fill="#2A428C"/><path d="M19.15 35.918c-4.376.596-4.792 3.077-4.794 3.988a.501.501 0 01-.278.451c-2.277 1.107-1.05 6.445-1.05 6.445.23.015.572.211.75.298.044-.272.116-.54.216-.799.077-.197.173-.396.293-.584.208-.327.303-.712.275-1.098-.082-1.113-.146-3.204 1.324-3.865 1.245-.56 2.772-.236 3.746.088.267.089.543.138.82.152a2.835 2.835 0 00-.139-.217c-1.877-2.639.733-4.562 1.236-4.898-.808-.08-1.62-.068-2.399.039z" fill="#1C2E7A"/><path d="M28.75 46.958c-.341-.312-1.02-.154-1.314.037.064.4.068.81.013 1.215l-.347 2.523c0 .204-.006.403-.018.6.845.254 1.264-.504 1.335-1.024.03-.225.08-.445.15-.66.224-.703 1.035-1.908.18-2.69z" fill="#FCAD6D"/><path d="M12.466 46.958c.34-.312 1.02-.154 1.313.037-.064.4-.068.81-.012 1.215l.346 2.523c0 .204.007.403.018.6-.845.254-1.264-.504-1.335-1.024a3.871 3.871 0 00-.149-.66c-.225-.703-1.036-1.908-.181-2.69z" fill="#FD995B"/><path d="M27.332 46.216a3.37 3.37 0 00-.3-.604 1.814 1.814 0 01-.274-1.106c.081-1.116.038-3.3-1.428-3.96-1.245-.56-2.772-.235-3.746.089a3.1 3.1 0 01-1.951 0c-.974-.324-2.501-.649-3.747-.088-1.47.66-1.509 2.855-1.427 3.969.028.385-.066.77-.275 1.097-.12.188-.216.387-.292.584a4.036 4.036 0 00-.229 2.013l.347 2.524c0 3.628 1.936 6.094 3.584 7.374a4.916 4.916 0 003.014 1.03 4.915 4.915 0 003.014-1.03c1.648-1.28 3.584-3.746 3.584-7.374l.347-2.523a4.032 4.032 0 00-.22-1.995z" fill="#F9BA8F"/><path d="M22.405 58.107c-1.647-1.28-3.584-3.746-3.584-7.374l-.346-2.524a4.033 4.033 0 01.228-2.013c.077-.197.173-.396.293-.584.208-.327.303-.712.275-1.098-.074-1.006-.049-2.896 1.043-3.738a3.088 3.088 0 01-.681-.142c-.974-.324-2.501-.649-3.747-.088-1.47.66-1.509 2.855-1.427 3.968.028.386-.066.771-.275 1.098-.12.188-.216.387-.292.584a4.035 4.035 0 00-.229 2.013l.347 2.524c0 3.628 1.936 6.094 3.584 7.374a4.916 4.916 0 005.42.402 4.846 4.846 0 01-.608-.402z" fill="#FCAD6D"/></g><defs><clipPath id="clip0"><path fill="#fff" d="M0 0h92v92H0z"/></clipPath></defs></svg>