<svg width="90" height="92" fill="none" xmlns="http://www.w3.org/2000/svg"><path d="M45 3.952c-23.785 0-43.066 19.71-43.066 44.024 0 11.063 3.992 21.171 10.584 28.905L26.416 87.7A42.124 42.124 0 0045 92c23.785 0 43.067-19.71 43.067-44.024S68.786 3.952 45 3.952z" fill="#FFC839"/><path d="M47.79 75.693l-.109-.203c-.627-1.17-.203-2.652.942-3.293l.132-.073c-1.2.67-2.718.217-3.374-1.01-.657-1.225-.213-2.778.987-3.449-1.2.671-2.718.217-3.375-1.009s-.212-2.778.987-3.45c-1.2.672-2.718.218-3.375-1.009-.656-1.226-.212-2.778.988-3.45l3.239-1.812-.494-.922a2.648 2.648 0 00-1.728-1.335c-2.693-.627-5.487.482-7.059 2.803-1.416 2.149.008-.472-3.58 7.942a2.68 2.68 0 01-1.165 1.319l-18.288 10.14A43.326 43.326 0 0026.415 87.7l12.92-7.163c.354-.198.748-.31 1.151-.329l3.927-.176c.404-.018.798-.13 1.152-.33l5.192-2.905-.167.042a2.36 2.36 0 01-2.8-1.146z" fill="#FCAD6D"/><path d="M55.395 74.256L42.5 50.102l-9.063 2.134 14.11 26.424c1.189 2.216 3.91 3.027 6.078 1.81 2.168-1.215 2.961-3.998 1.771-6.214z" fill="#3C58A0"/><path d="M41.573 58.201c-1-1.87.025-4.2 2.057-4.678l.618-.146-1.75-3.275-9.061 2.134L47.544 78.66c1.167 2.173 3.807 2.993 5.953 1.877L41.573 58.2z" fill="#2A428C"/><path d="M47.518 75.844l-.108-.203c-.627-1.17-.203-2.652.942-3.293l6.67-3.731c1.145-.641 2.594-.208 3.221.963l.108.202c.627 1.17.203 2.653-.942 3.293l-6.67 3.732c-1.144.64-2.594.207-3.22-.963z" fill="#F9BA8F"/><path d="M45.11 71.266c-.656-1.226-.212-2.778.987-3.45l7.996-4.474c1.2-.67 2.718-.216 3.375 1.01.656 1.225.212 2.778-.987 3.45l-7.996 4.473c-1.2.671-2.718.217-3.375-1.009z" fill="#F9BA8F"/><path d="M42.722 66.808c-.656-1.226-.212-2.778.987-3.45l8.494-4.752c1.2-.67 2.718-.217 3.374 1.01.657 1.225.213 2.778-.987 3.449l-8.493 4.752c-1.2.671-2.718.217-3.375-1.009z" fill="#F9BA8F"/><path d="M52.146 55.74c-.657-1.226-2.175-1.68-3.375-1.009L41.322 58.9c-1.2.672-1.644 2.224-.987 3.45.657 1.226 2.175 1.68 3.375 1.009l7.449-4.168c1.2-.671 1.644-2.223.987-3.45z" fill="#F9BA8F"/><path d="M31.088 66.557c.111 1.59.776 4.052 3.744 4.626 1.974.381 3.972-2.183 3.972-2.183 2.499-3.568 2.511-6.202 2.342-7.35-.015-.099.116-.143.163-.056l.637 1.19c.224.417.515.77.853 1.055a2.59 2.59 0 002.822.188 2.705 2.705 0 001.37-2.305c.026-1.07-.445-1.54-2.652-5.709a2.716 2.716 0 00-.722-.855l-.002-.002a2.623 2.623 0 00-1.005-.478c-2.692-.627-5.486.482-7.058 2.803-1.416 2.149.008-.472-3.58 7.942a2.69 2.69 0 01-.884 1.134z" fill="#FCAD6D"/><path d="M43.884 60.47l1.136 2.122c.3.558.959.793 1.525.57.28-.427.435-.928.447-1.44.022-.95-.366-1.393-1.514-3.581l-1.104.617a1.28 1.28 0 00-.49 1.712z" fill="#F9DFCD"/><path d="M35.806 70.253a.801.801 0 01.166-.964c4.532-4.122 3.86-8.703 3.853-8.75a.787.787 0 01.638-.905c.42-.07.817.222.885.652.035.222.808 5.49-4.35 10.181a.76.76 0 01-1.192-.214z" fill="#FD995B"/><path d="M29.161 51.514l-5.074-22.518c-.034-.15-.05-.3-.05-.448-5.99 1.734-9.656 7.988-8.243 14.257 1.412 6.27 7.386 10.254 13.514 9.134a2.088 2.088 0 01-.147-.425z" fill="#E9EFFF"/><path d="M17.03 46.05c2.407 4.33 7.291 6.8 12.278 5.89a2.071 2.071 0 01-.147-.426l-1.542-6.842a4.613 4.613 0 01-.417-.252s-4.417 4.768-10.173 1.63z" fill="#D3DCFB"/><path d="M57.488 13.444c-4.617 5.53-10.673 9.577-17.44 11.694.01.03.02.061.027.093l5.074 22.518c.007.032.01.064.017.096a36.521 36.521 0 0120.686 2.716l10.916 4.87L65.22 4.183l-7.732 9.26z" fill="#E9EFFF"/><path d="M60.78 9.503l5.48 22.648c.894 3.692-1.995 7.221-5.706 6.937-4.385-.336-10.272-.215-16.656 1.508 0 0-.078.2-.26.447l1.51 6.706c.008.032.012.064.018.096a36.521 36.521 0 0120.686 2.716l10.916 4.87L65.22 4.183l-4.44 5.319z" fill="#D3DCFB"/><path d="M82.26 23.401c-5.242.297-8.687-2.16-8.687-2.16l3.407 15.116s2.046-3.75 6.885-5.827a1.775 1.775 0 001.027-2.022l-.845-3.747a1.733 1.733 0 00-1.788-1.36z" fill="#E9EFFF"/><path d="M84.395 26.304c-.91.377-1.717.774-2.415 1.165-1.868 1.045-4.193-.022-4.67-2.143l-.593-2.627c-1.988-.636-3.144-1.459-3.144-1.459l3.407 15.117s2.046-3.75 6.885-5.827a1.775 1.775 0 001.027-2.022l-.497-2.204z" fill="#D3DCFB"/><path d="M79.725 58.545c-1.278.301-2.551-.514-2.846-1.82L64.766 2.972c-.294-1.306.503-2.608 1.78-2.909 1.277-.3 2.55.514 2.845 1.82l12.113 53.755c.294 1.305-.502 2.607-1.78 2.908z" fill="#FF4155"/><path d="M81.505 55.637L76.72 34.408c-.187.994-.926 1.832-1.953 2.074a2.55 2.55 0 01-2.688-1.055l4.8 21.3c.294 1.305 1.568 2.12 2.845 1.819 1.277-.301 2.074-1.603 1.78-2.909z" fill="#E80054"/><path d="M38.022 23.619l-12.779 3.009c-1.075.253-1.746 1.35-1.498 2.449l5.074 22.518c.248 1.1 1.32 1.785 2.395 1.532l12.78-3.01c1.075-.252 1.746-1.349 1.498-2.448l-5.075-22.518c-.247-1.1-1.32-1.785-2.395-1.532z" fill="#FF4155"/><path d="M40.662 41.813L30.656 44.17s-1.193 1.776-3.454.25l1.617 7.175c.248 1.1 1.32 1.785 2.395 1.532l12.78-3.009c1.075-.253 1.745-1.35 1.498-2.449l-1.594-7.072s-.79 2.023-3.236 1.216z" fill="#E80054"/><path d="M31.69 26.728c-.6 0-1.143-.422-1.284-1.045l-.873-3.875c-.164-.725.28-1.449.989-1.616.709-.168 1.417.286 1.58 1.01l.873 3.876c.164.725-.279 1.449-.988 1.616-.1.023-.2.034-.297.034z" fill="#BEC8F7"/><path d="M28.898 23.026c-.6 0-1.143-.422-1.284-1.046-.163-.725.28-1.449.989-1.616l3.718-.875a1.317 1.317 0 011.58 1.01c.164.726-.279 1.45-.988 1.617l-3.718.875a1.29 1.29 0 01-.297.035z" fill="#E9EFFF"/><path d="M27.534 30.315c-.163-.726.28-1.45.989-1.616l7.436-1.751a1.317 1.317 0 011.58 1.01c.164.726-.279 1.45-.988 1.617l-7.436 1.75a1.318 1.318 0 01-1.581-1.01zm1.04 4.618c-.164-.726.28-1.45.989-1.616l7.436-1.751a1.318 1.318 0 011.58 1.01c.164.726-.279 1.45-.988 1.617l-7.436 1.75a1.318 1.318 0 01-1.581-1.01zm1.041 4.617c-.163-.724.28-1.448.989-1.615l7.436-1.75a1.318 1.318 0 011.58 1.01c.164.725-.278 1.449-.988 1.616l-7.436 1.75a1.318 1.318 0 01-1.581-1.01zm1.041 4.62c-.163-.726.28-1.45.989-1.617l7.436-1.75a1.317 1.317 0 011.58 1.01c.164.725-.279 1.449-.988 1.616l-7.436 1.75a1.318 1.318 0 01-1.581-1.01zm1.041 4.618c-.163-.725.28-1.448.989-1.615l7.436-1.751a1.317 1.317 0 011.58 1.01c.164.726-.279 1.45-.988 1.616L33.278 49.8a1.318 1.318 0 01-1.581-1.01z" fill="#CC0053"/><path d="M39.334 80.537c-11.973-1.38-8.246-13.98-8.246-13.98-.09.067-.184.13-.282.185l-18.288 10.14A43.326 43.326 0 0026.415 87.7l12.92-7.163z" fill="#FD995B"/></svg>