<svg width="90" height="90" fill="none" xmlns="http://www.w3.org/2000/svg"><path d="M45.42 82.017l32.762-7.63a42.89 42.89 0 009.885-27.454C88.067 23.148 68.786 3.866 45 3.866c-23.785 0-43.066 19.282-43.066 43.067A42.89 42.89 0 0011.999 74.6l33.421 7.417z" fill="#FFC839"/><path d="M20.67 76.91a10.135 10.135 0 006.216 2.125c2.254 0 4.442-.748 6.215-2.125a19.42 19.42 0 003.933-4.147 28.92 28.92 0 00-1.039-.28 1.624 1.624 0 01-.925-.626c-.989-1.395-1.263-3.552-1.316-5.116a14.679 14.679 0 01-2.118 2.024 7.76 7.76 0 01-9.5 0 14.684 14.684 0 01-2.118-2.024c-.056 1.6-.34 3.817-1.384 5.208a1.406 1.406 0 01-.781.513c-.376.093-.748.195-1.116.302a19.412 19.412 0 003.933 4.146z" fill="#FCAD6D"/><path d="M26.633 70.384a7.73 7.73 0 01-4.498-1.619 14.68 14.68 0 01-2.117-2.024c-.056 1.6-.34 3.817-1.384 5.208a1.406 1.406 0 01-.781.513c-.376.093-.748.195-1.116.302a19.408 19.408 0 003.933 4.146 10.1 10.1 0 002.816 1.538c1.97-2.599 2.799-5.826 3.147-8.064z" fill="#FD995B"/><path d="M39.514 81.603c1.587-3.175 4.12-4.541 5.907-5.128-.54-.158-.997-.457-1.763-.889-2.175-1.227-4.428-2.205-6.883-2.893a18.824 18.824 0 01-3.863 4.088 9.827 9.827 0 01-6.026 2.06 9.826 9.826 0 01-6.027-2.06 18.812 18.812 0 01-3.863-4.09 30.042 30.042 0 00-4.997 1.909c6.454 7.69 15.544 13.09 25.88 14.811.336-2.78.863-6.264 1.635-7.808z" fill="#3C58A0"/><path d="M19.565 81.685c1.722-.816 3.04-2.028 4.046-3.404a9.793 9.793 0 01-2.752-1.5 18.81 18.81 0 01-3.863-4.09 30.042 30.042 0 00-4.997 1.909 43.327 43.327 0 007.566 7.085z" fill="#1C2E7A"/><path d="M61.22 12.96a1.948 1.948 0 100-3.896 1.948 1.948 0 000 3.896zm-6.644 0a1.948 1.948 0 100-3.896 1.948 1.948 0 000 3.896zm-6.646 0a1.948 1.948 0 100-3.896 1.948 1.948 0 000 3.896z" fill="#4FABF7"/><path d="M75.65 53.363a23.194 23.194 0 01-.262 3.776c-.704 3.102-1.72 5.803-3.02 8.027a11.934 11.934 0 01-2.185 2.725l-.11.103v.694c0 .72.28 1.386.756 2a25.369 25.369 0 006.721-1.317c2.152-.741 3.093-3.291 1.918-5.24-2.768-4.587-2.355-10.768-2.355-10.768h-1.464z" fill="#2A428C"/><path d="M79.467 64.132c-.26-.43-.491-.875-.698-1.327-3.221 1.868-4.508-.78-4.508-.78s-.084-.121-.236-.348a23.98 23.98 0 01-1.658 3.49 11.94 11.94 0 01-2.186 2.724l-.11.103v.695c0 .72.28 1.386.757 1.999a25.37 25.37 0 006.721-1.317c2.152-.74 3.094-3.291 1.918-5.24zm-27.111 5.239a25.374 25.374 0 006.722 1.317c.476-.613.756-1.279.756-1.999v-.853l-.105-.102a11.945 11.945 0 01-2.018-2.567c-1.3-2.226-2.316-4.925-3.019-8.024a21.444 21.444 0 01-.262-3.779h-1.636s.412 6.18-2.355 10.768c-1.176 1.948-.234 4.498 1.917 5.24z" fill="#1C2E7A"/><path d="M71.289 35.553c-1.659-.856-3.72-1.45-6.25-1.45-2.529 0-4.591.594-6.25 1.45a10.81 10.81 0 00-5.866 9.604v4.951c.572-.013 1.206.174 1.614.446.15-.492.356-.918.634-1.231a1.59 1.59 0 00.419-1.005c.042-1.428.417-4.805 2.934-6.098.7-.36 1.557-.085 1.951.597 1.516 2.628 5.051 6.091 12.914 4.615a.926.926 0 011.1.878v.009c.01.373.168.722.418 1.004.278.314.484.74.634 1.231.408-.271 1.042-.459 1.614-.446v-4.951a10.81 10.81 0 00-5.866-9.604z" fill="#2A428C"/><path d="M64.887 46.55c-3.897-7.444 3.425-12.083 3.425-12.083-.992-.23-2.08-.362-3.274-.362-2.529 0-4.59.593-6.25 1.449a10.81 10.81 0 00-5.866 9.604v4.951c.573-.013 1.206.174 1.614.446.15-.492.356-.918.634-1.231.25-.282.408-.631.419-1.005.043-1.428.418-4.806 2.934-6.098.7-.36 1.557-.085 1.951.597.82 1.421 2.231 3.084 4.596 4.08l-.183-.347z" fill="#1C2E7A"/><path d="M54.437 57.191s-.657-4.16.1-6.636c-.687-.458-2.014-.681-2.61-.098-1.223 1.194-.327 2.998.101 4.138.132.35.217.703.255 1.058.083.77.5 1.898 2.233 1.871l-.079-.333z" fill="#FD995B"/><path d="M78.151 50.456c-.596-.583-1.923-.36-2.61.098.757 2.477.1 6.636.1 6.636l-.079.333c1.732.027 2.15-1.1 2.233-1.871.038-.355.123-.708.255-1.058.428-1.14 1.323-2.944.102-4.138z" fill="#FCAD6D"/><path d="M24.588 34.247c-6.897.94-7.553 4.85-7.556 6.285 0 .3-.167.58-.438.711-3.588 1.746-1.653 10.158-1.653 10.158.36.024.9.333 1.182.47.069-.43.181-.851.34-1.26.12-.31.272-.624.461-.92a2.829 2.829 0 00.433-1.73c-.129-1.755-.23-5.05 2.087-6.092 1.962-.883 4.37-.372 5.904.139a4.875 4.875 0 003.074 0c1.535-.51 3.943-1.022 5.905-.139 2.31 1.04 2.215 4.318 2.087 6.077a2.858 2.858 0 00.432 1.744c.196.306.35.63.473.952.153.398.262.81.329 1.228.354-.171 1.024-.522 1.458-.46.053-1.84.223-3.823.223-3.823 2.044-10.011-7.314-14.352-14.74-13.34z" fill="#2A428C"/><path d="M24.588 34.247c-6.897.94-7.553 4.85-7.556 6.285a.79.79 0 01-.438.712c-3.588 1.745-1.653 10.157-1.653 10.157.36.024.9.333 1.182.47.069-.43.181-.851.34-1.259.12-.31.272-.625.461-.921a2.829 2.829 0 00.433-1.73c-.129-1.754-.23-5.05 2.087-6.091 1.962-.883 4.37-.372 5.904.138.42.14.855.217 1.292.24a4.513 4.513 0 00-.218-.342c-2.96-4.16 1.154-7.19 1.947-7.72a16.227 16.227 0 00-3.78.061z" fill="#1C2E7A"/><path d="M39.717 51.648c-.537-.492-1.607-.243-2.07.059a6.53 6.53 0 01.02 1.914l-.547 3.977c0 .32-.01.635-.028.944 1.331.402 1.992-.793 2.104-1.614.048-.353.126-.7.235-1.04.354-1.107 1.632-3.006.286-4.24z" fill="#FCAD6D"/><path d="M14.052 51.648c.537-.492 1.607-.243 2.07.059a6.49 6.49 0 00-.02 1.914l.546 3.977c0 .32.01.635.03.944-1.332.402-1.994-.793-2.105-1.614a6.104 6.104 0 00-.235-1.04c-.354-1.107-1.632-3.006-.286-4.24z" fill="#FD995B"/><path d="M37.482 50.478a5.3 5.3 0 00-.473-.952 2.858 2.858 0 01-.432-1.744c.128-1.76.06-5.2-2.25-6.24-1.963-.883-4.37-.372-5.905.139a4.876 4.876 0 01-3.074 0c-1.535-.51-3.942-1.022-5.905-.139-2.316 1.042-2.378 4.5-2.25 6.255a2.83 2.83 0 01-.432 1.73c-.19.296-.34.61-.462.921a6.356 6.356 0 00-.36 3.172l.547 3.978c0 5.718 3.052 9.605 5.649 11.621a7.746 7.746 0 004.75 1.625 7.745 7.745 0 004.75-1.625c2.597-2.016 5.65-5.903 5.65-11.621l.546-3.977a6.363 6.363 0 00-.349-3.143z" fill="#F9BA8F"/><path d="M29.717 69.22c-2.596-2.017-5.649-5.904-5.649-11.622l-.546-3.978a6.359 6.359 0 01.36-3.172c.12-.31.272-.625.46-.922a2.83 2.83 0 00.434-1.729c-.117-1.586-.077-4.565 1.644-5.892a4.857 4.857 0 01-1.073-.224c-1.535-.51-3.942-1.022-5.905-.139-2.316 1.042-2.378 4.5-2.25 6.255a2.83 2.83 0 01-.432 1.73c-.19.296-.34.61-.462.921a6.356 6.356 0 00-.36 3.172l.547 3.978c0 5.718 3.052 9.605 5.649 11.621a7.756 7.756 0 008.542.634 7.69 7.69 0 01-.959-.634z" fill="#FCAD6D"/><path d="M47.825 27.345a1.949 1.949 0 10-3.6-1.493 1.949 1.949 0 003.6 1.492zm-10.412-.75a1.948 1.948 0 103.897 0 1.948 1.948 0 00-3.897 0zm-2.884.751a1.949 1.949 0 10-3.6-1.492 1.949 1.949 0 003.6 1.492z" fill="#E9EFFF"/><path d="M54.11 74.098c1.922 3.289 4.832 5.847 8.417 7.398a6.385 6.385 0 005.052 0c3.584-1.551 6.495-4.11 8.417-7.398.077-.131.151-.265.227-.398-3.011-1.168-5.792-2.823-5.792-4.983v-1.025c-1.325 1.185-3.597 2.694-5.469 2.74-1.87-.046-4.143-1.555-5.468-2.74 0 1.413.375 3.114-4.065 5.27-.499.241-1.03.47-1.577.684.086.151.17.303.258.452z" fill="#FCAD6D"/><path d="M59.494 67.692c0 1.413.375 3.114-4.065 5.27-.499.241-1.03.47-1.577.684.086.151.17.303.258.452a17.65 17.65 0 005.17 5.59c3.562-2.617 4.92-6.622 5.439-9.274-1.822-.16-3.957-1.588-5.225-2.722z" fill="#FD995B"/><path d="M45 90c13.35 0 25.282-6.076 33.181-15.613a33.272 33.272 0 01-2.374-.853c-.1.18-.202.36-.304.536-1.836 3.142-4.617 5.586-8.041 7.067a6.1 6.1 0 01-4.826 0c-3.424-1.481-6.205-3.925-8.04-7.067-.114-.194-.225-.39-.335-.589-3.552 1.464-7.937 2.315-7.956 2.32-1.607.308-5.134 1.43-7.143 5.45-.8 1.597-1.336 5.273-1.67 8.095 2.438.428 4.947.653 7.508.653z" fill="#FC90CE"/><path d="M56.91 81.051a12.33 12.33 0 002.681-1.6 16.864 16.864 0 01-4.996-5.381c-.113-.194-.224-.39-.334-.589-3.552 1.464-7.937 2.315-7.956 2.32-1.607.308-5.134 1.43-7.143 5.45-.8 1.597-1.336 5.273-1.67 8.095a43.309 43.309 0 0011.422.475c.04-5.472.582-5.521 7.995-8.77z" fill="#F964B2"/><path d="M74.575 48.316a11.594 11.594 0 00-.038-.647 1.18 1.18 0 00-1.195-.49c-7.498 1.407-11.013-1.666-12.642-4.49a1.758 1.758 0 00-1.36-.879 4.424 4.424 0 00-1.274.578c-2.197 1.463-2.523 4.633-2.562 5.928-.01.34-.147.669-.397.95-1.376 1.55-1.075 6.08-.754 7.944.711 3.137 1.74 5.873 3.06 8.13 1.34 2.293 3.368 4.076 5.866 5.157a4.45 4.45 0 003.52 0c2.499-1.081 4.527-2.864 5.867-5.156 1.319-2.258 2.349-4.993 3.06-8.137.31-1.96.638-6.37-.754-7.938a1.497 1.497 0 01-.397-.95z" fill="#F9BA8F"/><path d="M66.608 65.34c-1.32-2.258-2.35-4.993-3.06-8.13-.321-1.865-.622-6.394.753-7.944.25-.281.387-.61.397-.95.013-.427.058-1.059.19-1.766-2.058-.944-3.365-2.434-4.188-3.862a1.758 1.758 0 00-1.36-.878 4.41 4.41 0 00-1.274.578c-2.197 1.463-2.523 4.633-2.562 5.928-.01.34-.147.669-.397.95-1.376 1.55-1.075 6.079-.754 7.944.711 3.137 1.74 5.873 3.06 8.13 1.34 2.293 3.368 4.076 5.866 5.156a4.45 4.45 0 003.52 0 12.846 12.846 0 002.838-1.685 12.283 12.283 0 01-3.03-3.47z" fill="#FCAD6D"/></svg>